<svg xmlns="http://www.w3.org/2000/svg" width="240" height="135" viewBox="0 0 240 135">
    <defs>
        <linearGradient id="a" x1="25.931%" x2="60.373%" y1="56.579%" y2="32.726%">
            <stop offset="0%" stop-color="#FF0070"/>
            <stop offset="39.935%" stop-color="#FF036E"/>
            <stop offset="100%" stop-color="#00FFF4"/>
        </linearGradient>
        <linearGradient id="b" x1="25.931%" x2="60.373%" y1="56.431%" y2="33.116%">
            <stop offset="0%" stop-color="#FF0070"/>
            <stop offset="39.935%" stop-color="#FF036E"/>
            <stop offset="100%" stop-color="#00FFF4"/>
        </linearGradient>
        <linearGradient id="c" x1="25.931%" x2="60.373%" y1="53.733%" y2="40.199%">
            <stop offset="0%" stop-color="#FF0070"/>
            <stop offset="39.935%" stop-color="#FF036E"/>
            <stop offset="100%" stop-color="#00FFF4"/>
        </linearGradient>
        <linearGradient id="d" x1="25.938%" x2="60.371%" y1="71.238%" y2="-5.76%">
            <stop offset="0%" stop-color="#FF0070"/>
            <stop offset="39.935%" stop-color="#FF036E"/>
            <stop offset="100%" stop-color="#00FFF4"/>
        </linearGradient>
        <linearGradient id="e" x1="25.931%" x2="60.373%" y1="57.107%" y2="31.342%">
            <stop offset="0%" stop-color="#FF0070"/>
            <stop offset="39.935%" stop-color="#FF036E"/>
            <stop offset="100%" stop-color="#00FFF4"/>
        </linearGradient>
        <linearGradient id="f" x1="25.931%" x2="60.373%" y1="57.491%" y2="30.332%">
            <stop offset="0%" stop-color="#FF0070"/>
            <stop offset="39.935%" stop-color="#FF036E"/>
            <stop offset="100%" stop-color="#00FFF4"/>
        </linearGradient>
        <linearGradient id="g" x1="25.931%" x2="60.373%" y1="57.094%" y2="31.376%">
            <stop offset="0%" stop-color="#FF0070"/>
            <stop offset="39.935%" stop-color="#FF036E"/>
            <stop offset="100%" stop-color="#00FFF4"/>
        </linearGradient>
    </defs>
    <g fill="none" fill-rule="evenodd">
        <path stroke="url(#a)" stroke-width=".5" d="M120.672 133.917c55.717 0 100.871-38.903 100.871-86.873 0-15.159-4.395-21.493-13.798-21.783-4.07-.126-9.086.829-15.986 2.89-2.738.817-5.647 1.764-9.852 3.187-1.13.382-5.122 1.74-5.334 1.812a722.99 722.99 0 0 1-5.583 1.875c-19.953 6.597-34.655 9.8-50.318 9.8-6.282 0-11.67-.088-21.455-.314-16.837-.387-22.672-.438-30.112-.095-9.711.447-17.146 1.642-23.142 3.892-13.577 5.094-20.058 15.909-20.058 35.604 0 22.734 8.66 36.01 26.407 42.938 14.413 5.628 31.827 7.067 68.36 7.067z" transform="matrix(-1 0 0 1 247.448 0)"/>
        <path stroke="url(#a)" stroke-width=".5" d="M128.12 125.583c55.717 0 100.871-38.903 100.871-86.872 0-15.16-4.395-21.493-13.797-21.784-4.07-.125-9.086.83-15.987 2.89-2.738.818-5.647 1.765-9.852 3.187-1.13.383-5.122 1.74-5.333 1.813a722.99 722.99 0 0 1-5.584 1.875c-19.953 6.597-34.655 9.8-50.318 9.8-6.282 0-11.67-.089-21.454-.314-16.838-.387-22.672-.438-30.113-.095-9.71.447-17.145 1.642-23.142 3.892-13.577 5.094-20.058 15.909-20.058 35.604 0 22.733 8.66 36.009 26.407 42.938 14.414 5.628 31.828 7.066 68.36 7.066z" transform="matrix(-1 0 0 1 262.345 0)"/>
        <path stroke="url(#b)" stroke-width=".5" d="M107.846 134.75c63.258 0 114.525-43.668 114.525-97.513 0-17.026-5-24.148-15.694-24.475-4.624-.141-10.32.93-18.156 3.244-3.108.918-6.41 1.98-11.184 3.577-1.282.429-5.813 1.953-6.053 2.034-2.48.832-4.42 1.477-6.337 2.104-22.644 7.402-39.328 10.995-57.1 10.995-7.131 0-13.245-.1-24.352-.352-19.111-.435-25.734-.492-34.18-.107-11.026.502-19.468 1.843-26.278 4.37C7.613 44.348.25 56.495.25 78.607c0 25.522 9.837 40.43 29.993 48.21 16.365 6.318 36.133 7.933 77.603 7.933z" transform="matrix(1 0 0 -1 0 147.5)"/>
        <path stroke="url(#b)" stroke-width=".5" d="M121.915 122.25c63.258 0 114.525-43.668 114.525-97.513 0-17.026-5-24.148-15.694-24.475-4.624-.141-10.32.93-18.156 3.244-3.108.918-6.41 1.98-11.184 3.577-1.282.429-5.813 1.953-6.053 2.034-2.48.832-4.42 1.477-6.337 2.104-22.644 7.402-39.328 10.995-57.1 10.995-7.131 0-13.245-.1-24.352-.352-19.111-.435-25.734-.492-34.18-.107-11.026.502-19.468 1.843-26.278 4.37-15.424 5.721-22.787 17.868-22.787 39.98 0 25.522 9.837 40.43 29.993 48.21 16.365 6.318 36.133 7.933 77.603 7.933z" transform="rotate(180 125.38 61.25)"/>
        <path stroke="url(#c)" stroke-width=".5" d="M125.225 117.25c63.267 0 114.525-33.265 114.525-74.236 0-12.932-4.981-18.339-15.692-18.588-4.632-.108-10.333.71-18.173 2.473-3.11.7-6.412 1.51-11.186 2.726-1.283.327-5.814 1.488-6.054 1.55-2.48.634-4.419 1.125-6.336 1.602-22.64 5.639-39.318 8.376-57.084 8.376-7.13 0-13.243-.076-24.349-.269-36.173-.627-48.241-.208-60.479 3.25-15.423 4.36-22.768 13.592-22.768 30.4 0 19.404 9.82 30.743 29.973 36.67 16.374 4.815 36.146 6.046 77.623 6.046z"/>
        <path fill-rule="nonzero" stroke="url(#d)" d="M4.832 37.666l.195.587-.069.171c-12.58 31.037 2.374 66.399 33.4 78.982a60.602 60.602 0 0 0 22.812 4.444c33.498.005 60.658-27.156 60.663-60.666C121.838 27.674 94.686.504 61.188.5 36.914.496 14.975 14.97 5.421 37.293l-.088.207-.501.166zM109.24 92.81l-3.725-3.724V81.561a1.531 1.531 0 0 0-.15-.682L97.361 64.89v-7.793a1.54 1.54 0 0 0-.684-1.28l-6.116-4.08a1.54 1.54 0 0 0-1.232-.212l-7.653 1.913-12.992-5.577-1.806-12.654 5.12-5.12H82.77l.149.224 3.465 5.209c.236.354.608.594 1.028.663l12.231 2.04c.246.04.5.02.738-.06l11.669-3.89.197.378a57.41 57.41 0 0 1-2.67 57.638l-.336.52zm-7.698-72.645l-4.004 2.67-.203-.04-9.3-1.866-5.998-1.997a1.503 1.503 0 0 0-.856-.033l-7.72 1.93-4.007-1.336 2.858-5.719h7.203c.24 0 .475-.055.688-.161l7.281-3.642.227.118a57.787 57.787 0 0 1 13.384 9.645l.447.431zM39.12 8.215l4.892 3.263c.182.121.387.202.602.237L55.07 13.46l-1.229 3.678-.236.079-5.148 1.719a1.538 1.538 0 0 0-.832.666l-5.919 9.866-9.51 5.71-.187.065-13.862 1.98a1.539 1.539 0 0 0-1.323 1.522v6.118c0 .408.162.8.45 1.088l3.627 3.627v4.645l-9.4-6.27-3.191-9.577.077-.176A57.915 57.915 0 0 1 38.646 8.172l.249-.106.225.15zM32.94 75.98h.001l-9.453-1.893L19.9 66.93v-5.118l8.232-8.235.31.62 2.811 5.627c.261.522.794.851 1.378.851H46.03l.146.243 5.522 9.206c.278.463.778.747 1.318.747h6.277l-1.576 7.898-.107.107-7.718 7.72a1.54 1.54 0 0 0-.453 1.088v5.348l-.2.15-7.338 5.506a1.54 1.54 0 0 0-.616 1.231v8.058l-3.413-1.131-3.666-9.172-.036-.185v-20c0-.732-.514-1.363-1.23-1.51zm-6.328 31.257C7.223 92.687-.976 67.546 6.104 44.357l.457-1.498.496 1.486 1.694 5.082c.107.325.32.604.604.794l10.668 7.114-.43.431-2.318 2.32a1.54 1.54 0 0 0-.451 1.089v6.118c0 .239.055.474.161.687l4.077 8.157c.213.425.61.728 1.078.82l8.963 1.791v19.133c0 .195.037.389.11.57l4.076 10.195c.169.42.514.746.944.889l6.118 2.04c.153.052.313.078.473.08.85 0 1.538-.69 1.538-1.54v-9.426l.2-.15 7.339-5.506a1.54 1.54 0 0 0 .615-1.231v-5.48l.147-.147 7.556-7.559c.214-.215.36-.489.42-.787l2.038-10.196a1.54 1.54 0 0 0-1.507-1.84h-7.283l-.146-.243-5.522-9.207a1.538 1.538 0 0 0-1.318-.746H33.58l-.137-.277-3.502-7.029a1.54 1.54 0 0 0-1.136-.832 1.5 1.5 0 0 0-1.33.433l-3.498 3.486V48.94c0-.408-.162-.8-.451-1.088L19.9 44.225v-4.147l.43-.06 12.518-1.789c.203-.03.399-.1.575-.205l10.192-6.117c.216-.13.397-.31.526-.527l5.823-9.707.176-.059 5.402-1.803c.459-.151.819-.511.97-.972l2.038-6.116a1.54 1.54 0 0 0-1.206-2.001L45.547 8.754l-.196-.077-2.93-1.955.98-.32a57.401 57.401 0 0 1 39.548 1.471l1.02.418-4.816 2.405H71.359a1.538 1.538 0 0 0-1.384.851l-4.077 8.156a1.54 1.54 0 0 0 .891 2.147l6.118 2.04c.276.094.572.106.856.034l7.72-1.93.138.046 5.564 1.853c.053.02.108.034.173.046l10.194 2.04c.4.08.815-.001 1.154-.228l5-3.336.289.322a58.026 58.026 0 0 1 6.185 8.267l.332.537-10.746 3.583-11.195-1.866-.12-.18-3.588-5.384a1.537 1.537 0 0 0-1.27-.685h-12.23c-.408 0-.8.162-1.088.451l-6.116 6.118a1.54 1.54 0 0 0-.435 1.307l2.038 14.273c.078.532.428.986.925 1.196l14.271 6.119c.307.133.65.16.977.077l7.494-1.874 4.856 3.244V65.26c-.002.238.05.473.151.682l8.003 15.989v7.793c0 .408.162.8.451 1.089l4.57 4.574-.26.347c-19.077 25.439-55.159 30.59-80.588 11.504z" transform="translate(58.759 9.167)"/>
        <g transform="translate(100.966 73.333)">
            <ellipse cx="10.432" cy="12.75" fill="#172F78" opacity=".4" rx="1" ry="1"/>
            <ellipse cx="16.095" cy="5.25" fill="#172F78" opacity=".4" rx="2.086" ry="2.1"/>
            <ellipse cx="16.468" cy="5.775" fill="#172F78" opacity=".8" rx="1" ry="1"/>
            <g fill="#03A7D3" transform="translate(7.302 .9)">
                <ellipse cx="1.083" cy="1.137" opacity=".4" rx="1.083" ry="1.083"/>
                <ellipse cx="1.083" cy="1.137" opacity=".8" rx="1" ry="1"/>
            </g>
            <path fill="url(#e)" d="M38.897 33.73v-7.747l-9.82 1.298-7.336-4.237c-1.3-.725-3.363-.725-4.662 0l-1.146.725L0 25.906V33.807c0 .458.344.954.955 1.298l16.2 9.351c1.3.725 3.363.725 4.662 0l16.124-9.351c.612-.344.956-.84.956-1.298v-.076z"/>
            <path fill="url(#e)" d="M37.923 23.978L21.74 14.643c-1.298-.724-3.36-.724-4.657 0L.973 24.016c-1.297.724-1.297 1.944 0 2.706l16.185 9.335c1.298.724 3.36.724 4.657 0l16.108-9.373c1.298-.762 1.298-1.944 0-2.706z" style="mix-blend-mode:normal"/>
            <path fill="#FFF" d="M37.92 26.93l-16.106 9.547c-1.297.74-3.358.74-4.656 0L.978 26.93c-.535-.312-.84-.701-.955-1.13-.114.585.191 1.169.954 1.598l16.181 9.547c1.298.74 3.359.74 4.656 0l16.105-9.547c.763-.429 1.069-1.052.954-1.598-.076.39-.381.78-.954 1.13z"/>
            <g fill="#FFF">
                <path d="M24.115 38.776l-.76.48v-.921l.76-.481zM25.711 37.814l-.76.48v-.921l.76-.48zM27.307 36.852l-.76.481v-.962l.76-.44zM25.977 39.537l-.76.44v-.921l.76-.44zM27.383 38.655l-.76.481v-.921l.76-.481zM32.398 33.727l-.76.48v-.921l.76-.481zM36.806 31.042l-.76.48v-.92l.76-.482zM28.903 35.89l-.76.441v-.921l.76-.441z"/>
            </g>
            <path fill="url(#f)" d="M18.646 32.232l-10.89-6.478c-.459-.275-.382-.707.115-1.02l10.66-6.322c.497-.314 1.3-.353 1.72-.078l10.89 6.478c.458.275.382.706-.115 1.02l-10.622 6.322c-.535.314-1.3.314-1.758.078z" style="mix-blend-mode:normal"/>
            <path fill="#FFF" d="M14.511 39.108l-9.201-5.04c-.235-.111-.392-.445-.392-.704v-.63c0-.26.196-.408.392-.297l9.201 5.04c.235.111.392.445.392.704v.63c0 .297-.157.408-.392.297z"/>
            <path fill="url(#e)" d="M38.897 18.73v-7.747l-9.82 1.298-7.336-4.237c-1.3-.725-3.363-.725-4.662 0l-1.146.725L0 10.906V18.807c0 .458.344.954.955 1.298l16.2 9.351c1.3.725 3.363.725 4.662 0l16.124-9.351c.612-.344.956-.84.956-1.298v-.076z"/>
            <path fill="url(#e)" d="M37.923 9.895L21.74.544c-1.298-.725-3.36-.725-4.657 0L.973 9.895c-1.297.725-1.297 1.947 0 2.71l16.185 9.351c1.298.725 3.36.725 4.657 0l16.108-9.351c1.298-.763 1.298-1.947 0-2.71z" style="mix-blend-mode:normal"/>
            <path fill="url(#g)" d="M30.713 9.928l-9.606-5.557c-.777-.428-2.022-.428-2.76 0L8.78 9.928c-.778.428-.778 1.166 0 1.594l9.605 5.557c.778.428 2.022.428 2.761 0l9.567-5.557c.778-.428.778-1.166 0-1.594z" style="mix-blend-mode:normal"/>
            <path fill="#FFF" d="M37.92 11.93l-16.106 9.547c-1.297.74-3.358.74-4.656 0L.978 11.93c-.535-.312-.84-.701-.955-1.13-.114.585.191 1.169.954 1.598l16.181 9.547c1.298.74 3.359.74 4.656 0l16.105-9.547c.763-.429 1.069-1.052.954-1.598-.076.429-.381.818-.954 1.13z"/>
            <g fill="#FFF">
                <path d="M24.115 24.485l-.76.481v-.921l.76-.481zM25.711 23.524l-.76.44v-.921l.76-.44zM27.307 22.562l-.76.44v-.92l.76-.482zM25.977 25.207l-.76.48v-.921l.76-.48zM27.383 24.365l-.76.481v-.962l.76-.44zM32.398 19.437l-.76.44v-.921l.76-.441zM36.806 16.752l-.76.48v-.961l.76-.44zM28.903 21.56l-.76.481v-.922l.76-.48z"/>
            </g>
            <g fill="#FFF">
                <path d="M24.115 9.421l-.76.44v-.92l.76-.439zM25.711 8.422l-.76.48v-.92l.76-.479zM27.307 7.463l-.76.48v-.92l.76-.479zM25.977 10.14l-.76.48v-.959l.76-.44zM27.383 9.301l-.76.44v-.92l.76-.439zM32.398 4.346l-.76.48v-.92l.76-.479zM36.806 1.709l-.76.44v-.92l.76-.439zM28.903 6.504l-.76.48v-.96l.76-.439z"/>
            </g>
        </g>
        <path fill="#000" fill-rule="nonzero" d="M62.717 67.03l5.555-17.61 5.633 17.61h5.903l7.6-27.394h-5.941l-4.63 17.298-5.208-17.298h-6.212l-5.054 17.298-4.552-17.298h-6.983l7.986 27.394h5.903zm44.56 0v-5.87H97.053v-4.97h8.68v-5.87h-8.68v-4.814h9.838v-5.87h-16.01V67.03h16.396zm13.542.157c5.864 0 10.262-2.7 10.262-8.453 0-3.522-1.89-5.518-3.858-6.262v-.078c2.006-1.33 3.087-3.248 3.087-6.105 0-3.796-2.624-6.81-9.067-6.81-2.932 0-6.674.157-8.179.236v27.237c1.582.157 5.17.235 7.755.235zm.463-16.71h-2.045v-4.97c.695-.079 1.158-.157 1.93-.157 1.504 0 2.97.822 2.97 2.465 0 1.996-1.273 2.662-2.855 2.662zm.038 10.84c-1.157 0-1.659-.118-2.083-.235v-5.127h2.392c2.006 0 3.28.744 3.28 2.466 0 1.84-1.197 2.896-3.589 2.896zm29.09 6.183c5.17 0 9.182-3.13 9.182-8.297 0-3.287-1.736-5.83-5.054-6.496v-.117c2.7-1.253 4.013-3.17 4.013-6.418 0-4.305-3.357-7.005-8.102-7.005-3.82 0-6.713 1.409-8.372 4.109l3.163 4.226c1.505-1.878 3.01-2.465 4.669-2.465 1.813 0 2.469 1.135 2.469 2.309 0 1.878-1.66 2.74-3.704 2.74h-1.543v5.87h1.697c3.01 0 4.591.939 4.591 3.013 0 1.409-1.041 2.66-3.395 2.66-2.276 0-3.973-1.447-5.324-3.013l-3.202 4.344c1.428 2.466 4.398 4.54 8.912 4.54zm16.59-.235c2.16 0 3.626-1.917 3.626-3.992 0-1.76-1.466-3.678-3.626-3.678-2.47 0-3.935 1.917-3.935 3.678 0 2.075 1.466 3.992 3.935 3.992zm15.74.078c6.29 0 9.26-5.478 9.26-14.01 0-8.531-3.048-14.01-9.336-14.01-6.29 0-9.337 5.479-9.337 14.01 0 8.532 3.125 14.01 9.414 14.01zm0-5.478c-1.928 0-3.24-2.192-3.24-8.532 0-6.261 1.003-8.531 3.164-8.531 2.199 0 3.163 2.074 3.163 8.531 0 6.418-.887 8.532-3.086 8.532z"/>
    </g>
</svg>
